<?xml version="1.0" encoding="UTF-8"?><svg xmlns="http://www.w3.org/2000/svg" xmlns:xlink="http://www.w3.org/1999/xlink" fill-opacity="1" color-rendering="auto" color-interpolation="auto" text-rendering="auto" stroke="black" stroke-linecap="square" width="1487" stroke-miterlimit="10" shape-rendering="auto" stroke-opacity="1" fill="black" stroke-dasharray="none" font-weight="normal" stroke-width="1" height="505" font-family="'Dialog'" font-style="normal" stroke-linejoin="miter" font-size="12px" stroke-dashoffset="0" image-rendering="auto">
  <!--Generated by ySVG 2.5-->
  <defs id="genericDefs"/>
  <g>
    <defs id="defs1">
      <clipPath clipPathUnits="userSpaceOnUse" id="clipPath1">
        <path d="M0 0 L1487 0 L1487 505 L0 505 L0 0 Z"/>
      </clipPath>
      <clipPath clipPathUnits="userSpaceOnUse" id="clipPath2">
        <path d="M5 -490 L1492 -490 L1492 15 L5 15 L5 -490 Z"/>
      </clipPath>
      <clipPath clipPathUnits="userSpaceOnUse" id="clipPath3">
        <path d="M766 -316 L766 -236 L913 -236 L913 -316 Z"/>
      </clipPath>
      <clipPath clipPathUnits="userSpaceOnUse" id="clipPath4">
        <path d="M943 -331 L943 -221 L1090 -221 L1090 -331 Z"/>
      </clipPath>
      <clipPath clipPathUnits="userSpaceOnUse" id="clipPath5">
        <path d="M242 -308 L242 -244 L326 -244 L326 -308 Z"/>
      </clipPath>
      <clipPath clipPathUnits="userSpaceOnUse" id="clipPath6">
        <path d="M1205 -306 L1205 -246 L1459 -246 L1459 -306 Z"/>
      </clipPath>
      <clipPath clipPathUnits="userSpaceOnUse" id="clipPath7">
        <path d="M1191 -138 L1191 -110 L1346 -110 L1346 -138 Z"/>
      </clipPath>
      <clipPath clipPathUnits="userSpaceOnUse" id="clipPath8">
        <path d="M1376 -138 L1376 -110 L1476 -110 L1476 -138 Z"/>
      </clipPath>
      <clipPath clipPathUnits="userSpaceOnUse" id="clipPath9">
        <path d="M863 -474 L863 -379 L994 -379 L994 -474 Z"/>
      </clipPath>
      <clipPath clipPathUnits="userSpaceOnUse" id="clipPath10">
        <path d="M505 -164 L505 -84 L629 -84 L629 -164 Z"/>
      </clipPath>
      <clipPath clipPathUnits="userSpaceOnUse" id="clipPath11">
        <path d="M20 -163 L20 -84 L205 -84 L205 -163 Z"/>
      </clipPath>
      <clipPath clipPathUnits="userSpaceOnUse" id="clipPath12">
        <path d="M36 -28 L36 0 L89 0 L89 -28 Z"/>
      </clipPath>
      <clipPath clipPathUnits="userSpaceOnUse" id="clipPath13">
        <path d="M119 -28 L119 0 L203 0 L203 -28 Z"/>
      </clipPath>
      <clipPath clipPathUnits="userSpaceOnUse" id="clipPath14">
        <path d="M235 -138 L235 -110 L333 -110 L333 -138 Z"/>
      </clipPath>
      <clipPath clipPathUnits="userSpaceOnUse" id="clipPath15">
        <path d="M363 -138 L363 -110 L475 -110 L475 -138 Z"/>
      </clipPath>
      <clipPath clipPathUnits="userSpaceOnUse" id="clipPath16">
        <path d="M660 -173 L660 -75 L839 -75 L839 -173 Z"/>
      </clipPath>
      <clipPath clipPathUnits="userSpaceOnUse" id="clipPath17">
        <path d="M704 -28 L704 0 L795 0 L795 -28 Z"/>
      </clipPath>
      <clipPath clipPathUnits="userSpaceOnUse" id="clipPath18">
        <path d="M870 -173 L870 -75 L989 -75 L989 -173 Z"/>
      </clipPath>
      <clipPath clipPathUnits="userSpaceOnUse" id="clipPath19">
        <path d="M1019 -173 L1019 -75 L1160 -75 L1160 -173 Z"/>
      </clipPath>
      <clipPath clipPathUnits="userSpaceOnUse" id="clipPath20">
        <path d="M859 -28 L859 0 L959 0 L959 -28 Z"/>
      </clipPath>
      <clipPath clipPathUnits="userSpaceOnUse" id="clipPath21">
        <path d="M989 -28 L989 0 L1089 0 L1089 -28 Z"/>
      </clipPath>
      <clipPath clipPathUnits="userSpaceOnUse" id="clipPath22">
        <path d="M1119 -28 L1119 0 L1219 0 L1219 -28 Z"/>
      </clipPath>
      <clipPath clipPathUnits="userSpaceOnUse" id="clipPath23">
        <path d="M1249 -28 L1249 0 L1349 0 L1349 -28 Z"/>
      </clipPath>
    </defs>
    <g fill="white" text-rendering="geometricPrecision" shape-rendering="geometricPrecision" transform="translate(-5,490)" stroke="white">
      <rect x="5" width="1487" height="505" y="-490" clip-path="url(#clipPath2)" stroke="none"/>
    </g>
    <g fill="rgb(255,204,0)" text-rendering="geometricPrecision" shape-rendering="geometricPrecision" transform="matrix(1,0,0,1,-5,490)" stroke="rgb(255,204,0)">
      <rect x="767" width="145" height="78" y="-315" clip-path="url(#clipPath2)" stroke="none"/>
      <rect x="766" y="-316" clip-path="url(#clipPath2)" fill="yellow" width="1" height="80" stroke="none"/>
      <rect x="767" y="-316" clip-path="url(#clipPath2)" fill="yellow" width="145" height="1" stroke="none"/>
      <rect x="767" y="-237" clip-path="url(#clipPath2)" fill="rgb(178,142,0)" width="146" height="1" stroke="none"/>
      <rect x="912" y="-316" clip-path="url(#clipPath2)" fill="rgb(178,142,0)" width="1" height="79" stroke="none"/>
    </g>
    <g font-size="13px" stroke-linecap="butt" transform="matrix(1,0,0,1,-5,490)" text-rendering="geometricPrecision" font-family="'Open Sans Condensed Light'" shape-rendering="geometricPrecision" font-weight="bold" stroke-miterlimit="1.45">
      <text x="772.325" xml:space="preserve" y="-297.6999" clip-path="url(#clipPath3)" stroke="none">FrameCountingAnimationOp</text>
    </g>
    <g text-rendering="geometricPrecision" shape-rendering="geometricPrecision" transform="matrix(1,0,0,1,-5,490)">
      <line y2="-288" fill="none" x1="767" clip-path="url(#clipPath3)" x2="912" y1="-288"/>
      <line y2="-278" fill="none" x1="767" clip-path="url(#clipPath3)" x2="912" y1="-278"/>
      <text stroke-linecap="butt" x="771.8591" y="-261.0651" clip-path="url(#clipPath3)" font-family="'Open Sans Condensed Light'" stroke="none" stroke-miterlimit="1.45" xml:space="preserve">+ FrameCountingAnimationOp(</text>
      <text stroke-linecap="butt" x="771.8591" y="-244.7233" clip-path="url(#clipPath3)" font-family="'Open Sans Condensed Light'" stroke="none" stroke-miterlimit="1.45" xml:space="preserve">        durationInFrames: long)</text>
      <rect x="944" y="-330" clip-path="url(#clipPath2)" fill="rgb(255,204,0)" width="145" height="108" stroke="none"/>
      <rect x="943" y="-331" clip-path="url(#clipPath2)" fill="yellow" width="1" height="110" stroke="none"/>
      <rect x="944" y="-331" clip-path="url(#clipPath2)" fill="yellow" width="145" height="1" stroke="none"/>
      <rect x="944" y="-222" clip-path="url(#clipPath2)" fill="rgb(178,142,0)" width="146" height="1" stroke="none"/>
      <rect x="1089" y="-331" clip-path="url(#clipPath2)" fill="rgb(178,142,0)" width="1" height="109" stroke="none"/>
    </g>
    <g font-size="13px" stroke-linecap="butt" transform="matrix(1,0,0,1,-5,490)" text-rendering="geometricPrecision" font-family="'Open Sans Condensed Light'" shape-rendering="geometricPrecision" font-weight="bold" stroke-miterlimit="1.45">
      <text x="965.1469" xml:space="preserve" y="-312.5997" clip-path="url(#clipPath4)" stroke="none">ConditionalOperation</text>
    </g>
    <g text-rendering="geometricPrecision" shape-rendering="geometricPrecision" transform="matrix(1,0,0,1,-5,490)">
      <line y2="-303" fill="none" x1="944" clip-path="url(#clipPath4)" x2="1090" y1="-303"/>
      <line y2="-293" fill="none" x1="944" clip-path="url(#clipPath4)" x2="1090" y1="-293"/>
      <text stroke-linecap="butt" x="948.961" y="-275.965" clip-path="url(#clipPath4)" font-family="'Open Sans Condensed Light'" stroke="none" stroke-miterlimit="1.45" xml:space="preserve">+ ConditionalOperation(</text>
      <text stroke-linecap="butt" x="948.961" y="-259.6232" clip-path="url(#clipPath4)" font-family="'Open Sans Condensed Light'" stroke="none" stroke-miterlimit="1.45" xml:space="preserve">        condition: Supplier&lt;Boolean&gt;, </text>
      <text stroke-linecap="butt" x="948.961" y="-243.2814" clip-path="url(#clipPath4)" font-family="'Open Sans Condensed Light'" stroke="none" stroke-miterlimit="1.45" xml:space="preserve">        ifTrue: AnimationOperation, </text>
      <text stroke-linecap="butt" x="948.961" y="-226.9396" clip-path="url(#clipPath4)" font-family="'Open Sans Condensed Light'" stroke="none" stroke-miterlimit="1.45" xml:space="preserve">        ifFalse: AnimationOperation)</text>
      <rect x="243" y="-307" clip-path="url(#clipPath2)" fill="rgb(255,204,0)" width="82" height="62" stroke="none"/>
      <rect x="242" y="-308" clip-path="url(#clipPath2)" fill="yellow" width="1" height="64" stroke="none"/>
      <rect x="243" y="-308" clip-path="url(#clipPath2)" fill="yellow" width="82" height="1" stroke="none"/>
      <rect x="243" y="-245" clip-path="url(#clipPath2)" fill="rgb(178,142,0)" width="83" height="1" stroke="none"/>
      <rect x="325" y="-308" clip-path="url(#clipPath2)" fill="rgb(178,142,0)" width="1" height="63" stroke="none"/>
    </g>
    <g font-size="13px" stroke-linecap="butt" transform="matrix(1,0,0,1,-5,490)" text-rendering="geometricPrecision" font-family="'Open Sans Condensed Light'" shape-rendering="geometricPrecision" font-weight="bold" stroke-miterlimit="1.45">
      <text x="260.7649" xml:space="preserve" y="-289.289" clip-path="url(#clipPath5)" stroke="none">InstantOp</text>
    </g>
    <g text-rendering="geometricPrecision" shape-rendering="geometricPrecision" transform="matrix(1,0,0,1,-5,490)">
      <line y2="-280" fill="none" x1="243" clip-path="url(#clipPath5)" x2="325" y1="-280"/>
      <line y2="-270" fill="none" x1="243" clip-path="url(#clipPath5)" x2="325" y1="-270"/>
      <text stroke-linecap="butt" x="247.1898" y="-252.6542" clip-path="url(#clipPath5)" font-family="'Open Sans Condensed Light'" stroke="none" stroke-miterlimit="1.45" xml:space="preserve">+ operation(): void</text>
      <rect x="1206" y="-305" clip-path="url(#clipPath2)" fill="rgb(255,204,0)" width="252" height="58" stroke="none"/>
      <rect x="1205" y="-306" clip-path="url(#clipPath2)" fill="yellow" width="1" height="60" stroke="none"/>
      <rect x="1206" y="-306" clip-path="url(#clipPath2)" fill="yellow" width="252" height="1" stroke="none"/>
      <rect x="1206" y="-247" clip-path="url(#clipPath2)" fill="rgb(178,142,0)" width="253" height="1" stroke="none"/>
      <rect x="1458" y="-306" clip-path="url(#clipPath2)" fill="rgb(178,142,0)" width="1" height="59" stroke="none"/>
    </g>
    <g font-size="13px" stroke-linecap="butt" transform="matrix(1,0,0,1,-5,490)" text-rendering="geometricPrecision" font-family="'Open Sans Condensed Light'" shape-rendering="geometricPrecision" font-weight="bold" stroke-miterlimit="1.45">
      <text x="1282.4567" xml:space="preserve" y="-287.6589" clip-path="url(#clipPath6)" stroke="none">CompositeOperation</text>
    </g>
    <g text-rendering="geometricPrecision" shape-rendering="geometricPrecision" transform="matrix(1,0,0,1,-5,490)">
      <line y2="-278" fill="none" x1="1206" clip-path="url(#clipPath6)" x2="1458" y1="-278"/>
      <line y2="-268" fill="none" x1="1206" clip-path="url(#clipPath6)" x2="1458" y1="-268"/>
      <text stroke-linecap="butt" x="1210.0811" y="-251.0242" clip-path="url(#clipPath6)" font-family="'Open Sans Condensed Light'" stroke="none" stroke-miterlimit="1.45" xml:space="preserve">+ CompositeOperation(operations: List&lt;AnimationOperation&gt;)</text>
      <rect x="1192" y="-137" clip-path="url(#clipPath2)" fill="rgb(255,204,0)" width="153" height="26" stroke="none"/>
      <rect x="1191" y="-138" clip-path="url(#clipPath2)" fill="yellow" width="1" height="28" stroke="none"/>
      <rect x="1192" y="-138" clip-path="url(#clipPath2)" fill="yellow" width="153" height="1" stroke="none"/>
      <rect x="1192" y="-111" clip-path="url(#clipPath2)" fill="rgb(178,142,0)" width="154" height="1" stroke="none"/>
      <rect x="1345" y="-138" clip-path="url(#clipPath2)" fill="rgb(178,142,0)" width="1" height="27" stroke="none"/>
    </g>
    <g font-size="13px" stroke-linecap="butt" transform="matrix(1,0,0,1,-5,490)" text-rendering="geometricPrecision" font-family="'Open Sans Condensed Light'" shape-rendering="geometricPrecision" font-weight="bold" stroke-miterlimit="1.45">
      <text x="1196.3962" xml:space="preserve" y="-119.4725" clip-path="url(#clipPath7)" stroke="none">AnimationOperationSequence</text>
    </g>
    <g fill="rgb(255,204,0)" text-rendering="geometricPrecision" shape-rendering="geometricPrecision" transform="matrix(1,0,0,1,-5,490)" stroke="rgb(255,204,0)">
      <rect x="1377" width="98" height="26" y="-137" clip-path="url(#clipPath2)" stroke="none"/>
      <rect x="1376" y="-138" clip-path="url(#clipPath2)" fill="yellow" width="1" height="28" stroke="none"/>
      <rect x="1377" y="-138" clip-path="url(#clipPath2)" fill="yellow" width="98" height="1" stroke="none"/>
      <rect x="1377" y="-111" clip-path="url(#clipPath2)" fill="rgb(178,142,0)" width="99" height="1" stroke="none"/>
      <rect x="1475" y="-138" clip-path="url(#clipPath2)" fill="rgb(178,142,0)" width="1" height="27" stroke="none"/>
    </g>
    <g font-size="13px" stroke-linecap="butt" transform="matrix(1,0,0,1,-5,490)" text-rendering="geometricPrecision" font-family="'Open Sans Condensed Light'" shape-rendering="geometricPrecision" font-weight="bold" stroke-miterlimit="1.45">
      <text x="1383.4617" xml:space="preserve" y="-119.4725" clip-path="url(#clipPath8)" stroke="none">ParallelOperation</text>
    </g>
    <g fill="rgb(255,204,0)" text-rendering="geometricPrecision" shape-rendering="geometricPrecision" transform="matrix(1,0,0,1,-5,490)" stroke="rgb(255,204,0)">
      <rect x="864" width="129" height="93" y="-473" clip-path="url(#clipPath2)" stroke="none"/>
      <rect x="863" y="-474" clip-path="url(#clipPath2)" fill="yellow" width="1" height="95" stroke="none"/>
      <rect x="864" y="-474" clip-path="url(#clipPath2)" fill="yellow" width="129" height="1" stroke="none"/>
      <rect x="864" y="-380" clip-path="url(#clipPath2)" fill="rgb(178,142,0)" width="130" height="1" stroke="none"/>
      <rect x="993" y="-474" clip-path="url(#clipPath2)" fill="rgb(178,142,0)" width="1" height="94" stroke="none"/>
    </g>
    <g font-size="13px" stroke-linecap="butt" transform="matrix(1,0,0,1,-5,490)" text-rendering="geometricPrecision" font-family="'Open Sans Condensed Light'" shape-rendering="geometricPrecision" font-weight="bold" stroke-miterlimit="1.45">
      <text x="880.0808" xml:space="preserve" y="-455.479" clip-path="url(#clipPath9)" stroke="none">AnimationOperation</text>
    </g>
    <g text-rendering="geometricPrecision" shape-rendering="geometricPrecision" transform="matrix(1,0,0,1,-5,490)">
      <line y2="-446" fill="none" x1="864" clip-path="url(#clipPath9)" x2="993" y1="-446"/>
      <line y2="-436" fill="none" x1="864" clip-path="url(#clipPath9)" x2="993" y1="-436"/>
      <text stroke-linecap="butt" x="868.4304" y="-418.8442" clip-path="url(#clipPath9)" font-family="'Open Sans Condensed Light'" stroke="none" stroke-miterlimit="1.45" xml:space="preserve">+ AnimationOperation()</text>
      <text stroke-linecap="butt" x="868.4304" y="-402.5024" clip-path="url(#clipPath9)" font-family="'Open Sans Condensed Light'" stroke="none" stroke-miterlimit="1.45" xml:space="preserve">+ getDurationInFrames(): long</text>
      <text stroke-linecap="butt" x="868.4304" y="-386.1606" clip-path="url(#clipPath9)" font-family="'Open Sans Condensed Light'" stroke="none" stroke-miterlimit="1.45" xml:space="preserve">+ stepImpl(): void</text>
      <rect x="506" y="-163" clip-path="url(#clipPath2)" fill="rgb(255,204,0)" width="122" height="78" stroke="none"/>
      <rect x="505" y="-164" clip-path="url(#clipPath2)" fill="yellow" width="1" height="80" stroke="none"/>
      <rect x="506" y="-164" clip-path="url(#clipPath2)" fill="yellow" width="122" height="1" stroke="none"/>
      <rect x="506" y="-85" clip-path="url(#clipPath2)" fill="rgb(178,142,0)" width="123" height="1" stroke="none"/>
      <rect x="628" y="-164" clip-path="url(#clipPath2)" fill="rgb(178,142,0)" width="1" height="79" stroke="none"/>
    </g>
    <g font-size="13px" stroke-linecap="butt" transform="matrix(1,0,0,1,-5,490)" text-rendering="geometricPrecision" font-family="'Open Sans Condensed Light'" shape-rendering="geometricPrecision" font-weight="bold" stroke-miterlimit="1.45">
      <text x="533.8406" xml:space="preserve" y="-145.9525" clip-path="url(#clipPath10)" stroke="none">NopOperation</text>
    </g>
    <g text-rendering="geometricPrecision" shape-rendering="geometricPrecision" transform="matrix(1,0,0,1,-5,490)">
      <line y2="-137" fill="none" x1="506" clip-path="url(#clipPath10)" x2="629" y1="-137"/>
      <line y2="-127" fill="none" x1="506" clip-path="url(#clipPath10)" x2="629" y1="-127"/>
      <text stroke-linecap="butt" x="510.8675" y="-109.3177" clip-path="url(#clipPath10)" font-family="'Open Sans Condensed Light'" stroke="none" stroke-miterlimit="1.45" xml:space="preserve">+ NopOperation(</text>
      <text stroke-linecap="butt" x="510.8675" y="-92.9759" clip-path="url(#clipPath10)" font-family="'Open Sans Condensed Light'" stroke="none" stroke-miterlimit="1.45" xml:space="preserve">        durationInFrames: long)</text>
      <rect x="21" y="-162" clip-path="url(#clipPath2)" fill="rgb(255,204,0)" width="183" height="77" stroke="none"/>
      <rect x="20" y="-163" clip-path="url(#clipPath2)" fill="yellow" width="1" height="79" stroke="none"/>
      <rect x="21" y="-163" clip-path="url(#clipPath2)" fill="yellow" width="183" height="1" stroke="none"/>
      <rect x="21" y="-85" clip-path="url(#clipPath2)" fill="rgb(178,142,0)" width="184" height="1" stroke="none"/>
      <rect x="204" y="-163" clip-path="url(#clipPath2)" fill="rgb(178,142,0)" width="1" height="78" stroke="none"/>
    </g>
    <g font-size="13px" stroke-linecap="butt" transform="matrix(1,0,0,1,-5,490)" text-rendering="geometricPrecision" font-family="'Open Sans Condensed Light'" shape-rendering="geometricPrecision" font-weight="bold" stroke-miterlimit="1.45">
      <text x="73.4262" xml:space="preserve" y="-145.058" clip-path="url(#clipPath11)" stroke="none">InstantModelOp</text>
    </g>
    <g text-rendering="geometricPrecision" shape-rendering="geometricPrecision" transform="matrix(1,0,0,1,-5,490)">
      <line y2="-136" fill="none" x1="21" clip-path="url(#clipPath11)" x2="204" y1="-136"/>
      <line y2="-126" fill="none" x1="21" clip-path="url(#clipPath11)" x2="204" y1="-126"/>
      <text stroke-linecap="butt" x="25.0002" y="-108.4233" clip-path="url(#clipPath11)" font-family="'Open Sans Condensed Light'" stroke="none" stroke-miterlimit="1.45" xml:space="preserve">+InstantModelOperation(</text>
      <text stroke-linecap="butt" x="25.0002" y="-92.0815" clip-path="url(#clipPath11)" font-family="'Open Sans Condensed Light'" stroke="none" stroke-miterlimit="1.45" xml:space="preserve">        models: Supplier&lt;Collection&lt;Spatial&gt;&gt;)</text>
      <rect x="37" y="-27" clip-path="url(#clipPath2)" fill="rgb(255,204,0)" width="51" height="26" stroke="none"/>
      <rect x="36" y="-28" clip-path="url(#clipPath2)" fill="yellow" width="1" height="28" stroke="none"/>
      <rect x="37" y="-28" clip-path="url(#clipPath2)" fill="yellow" width="51" height="1" stroke="none"/>
      <rect x="37" y="-1" clip-path="url(#clipPath2)" fill="rgb(178,142,0)" width="52" height="1" stroke="none"/>
      <rect x="88" y="-28" clip-path="url(#clipPath2)" fill="rgb(178,142,0)" width="1" height="27" stroke="none"/>
    </g>
    <g font-size="13px" stroke-linecap="butt" transform="matrix(1,0,0,1,-5,490)" text-rendering="geometricPrecision" font-family="'Open Sans Condensed Light'" shape-rendering="geometricPrecision" font-weight="bold" stroke-miterlimit="1.45">
      <text x="43.1221" xml:space="preserve" y="-9.105" clip-path="url(#clipPath12)" stroke="none">ShowOp</text>
    </g>
    <g fill="rgb(255,204,0)" text-rendering="geometricPrecision" shape-rendering="geometricPrecision" transform="matrix(1,0,0,1,-5,490)" stroke="rgb(255,204,0)">
      <rect x="120" width="82" height="26" y="-27" clip-path="url(#clipPath2)" stroke="none"/>
      <rect x="119" y="-28" clip-path="url(#clipPath2)" fill="yellow" width="1" height="28" stroke="none"/>
      <rect x="120" y="-28" clip-path="url(#clipPath2)" fill="yellow" width="82" height="1" stroke="none"/>
      <rect x="120" y="-1" clip-path="url(#clipPath2)" fill="rgb(178,142,0)" width="83" height="1" stroke="none"/>
      <rect x="202" y="-28" clip-path="url(#clipPath2)" fill="rgb(178,142,0)" width="1" height="27" stroke="none"/>
    </g>
    <g font-size="13px" stroke-linecap="butt" transform="matrix(1,0,0,1,-5,490)" text-rendering="geometricPrecision" font-family="'Open Sans Condensed Light'" shape-rendering="geometricPrecision" font-weight="bold" stroke-miterlimit="1.45">
      <text x="127.3278" xml:space="preserve" y="-9.105" clip-path="url(#clipPath13)" stroke="none">TranslateToOp</text>
    </g>
    <g fill="rgb(255,204,0)" text-rendering="geometricPrecision" shape-rendering="geometricPrecision" transform="matrix(1,0,0,1,-5,490)" stroke="rgb(255,204,0)">
      <rect x="236" width="96" height="26" y="-137" clip-path="url(#clipPath2)" stroke="none"/>
      <rect x="235" y="-138" clip-path="url(#clipPath2)" fill="yellow" width="1" height="28" stroke="none"/>
      <rect x="236" y="-138" clip-path="url(#clipPath2)" fill="yellow" width="96" height="1" stroke="none"/>
      <rect x="236" y="-111" clip-path="url(#clipPath2)" fill="rgb(178,142,0)" width="97" height="1" stroke="none"/>
      <rect x="332" y="-138" clip-path="url(#clipPath2)" fill="rgb(178,142,0)" width="1" height="27" stroke="none"/>
    </g>
    <g font-size="13px" stroke-linecap="butt" transform="matrix(1,0,0,1,-5,490)" text-rendering="geometricPrecision" font-family="'Open Sans Condensed Light'" shape-rendering="geometricPrecision" font-weight="bold" stroke-miterlimit="1.45">
      <text x="245.9907" xml:space="preserve" y="-119.4725" clip-path="url(#clipPath14)" stroke="none">InitialState...Op</text>
    </g>
    <g fill="rgb(255,204,0)" text-rendering="geometricPrecision" shape-rendering="geometricPrecision" transform="matrix(1,0,0,1,-5,490)" stroke="rgb(255,204,0)">
      <rect x="364" width="110" height="26" y="-137" clip-path="url(#clipPath2)" stroke="none"/>
      <rect x="363" y="-138" clip-path="url(#clipPath2)" fill="yellow" width="1" height="28" stroke="none"/>
      <rect x="364" y="-138" clip-path="url(#clipPath2)" fill="yellow" width="110" height="1" stroke="none"/>
      <rect x="364" y="-111" clip-path="url(#clipPath2)" fill="rgb(178,142,0)" width="111" height="1" stroke="none"/>
      <rect x="474" y="-138" clip-path="url(#clipPath2)" fill="rgb(178,142,0)" width="1" height="27" stroke="none"/>
    </g>
    <g font-size="13px" stroke-linecap="butt" transform="matrix(1,0,0,1,-5,490)" text-rendering="geometricPrecision" font-family="'Open Sans Condensed Light'" shape-rendering="geometricPrecision" font-weight="bold" stroke-miterlimit="1.45">
      <text x="370.558" xml:space="preserve" y="-119.4725" clip-path="url(#clipPath15)" stroke="none">MakeTransparentOp</text>
    </g>
    <g fill="rgb(255,204,0)" text-rendering="geometricPrecision" shape-rendering="geometricPrecision" transform="matrix(1,0,0,1,-5,490)" stroke="rgb(255,204,0)">
      <rect x="661" width="177" height="96" y="-172" clip-path="url(#clipPath2)" stroke="none"/>
      <rect x="660" y="-173" clip-path="url(#clipPath2)" fill="yellow" width="1" height="98" stroke="none"/>
      <rect x="661" y="-173" clip-path="url(#clipPath2)" fill="yellow" width="177" height="1" stroke="none"/>
      <rect x="661" y="-76" clip-path="url(#clipPath2)" fill="rgb(178,142,0)" width="178" height="1" stroke="none"/>
      <rect x="838" y="-173" clip-path="url(#clipPath2)" fill="rgb(178,142,0)" width="1" height="97" stroke="none"/>
    </g>
    <g font-size="13px" stroke-linecap="butt" transform="matrix(1,0,0,1,-5,490)" text-rendering="geometricPrecision" font-family="'Open Sans Condensed Light'" shape-rendering="geometricPrecision" font-weight="bold" stroke-miterlimit="1.45">
      <text x="703.619" xml:space="preserve" y="-154.84" clip-path="url(#clipPath16)" stroke="none">ModelAnimationOp</text>
    </g>
    <g text-rendering="geometricPrecision" shape-rendering="geometricPrecision" transform="matrix(1,0,0,1,-5,490)">
      <line y2="-146" fill="none" x1="661" clip-path="url(#clipPath16)" x2="839" y1="-146"/>
      <line y2="-136" fill="none" x1="661" clip-path="url(#clipPath16)" x2="839" y1="-136"/>
      <text stroke-linecap="butt" x="665.6667" y="-118.2052" clip-path="url(#clipPath16)" font-family="'Open Sans Condensed Light'" stroke="none" stroke-miterlimit="1.45" xml:space="preserve">+ ModelAnimationOp(</text>
      <text stroke-linecap="butt" x="665.6667" y="-101.8634" clip-path="url(#clipPath16)" font-family="'Open Sans Condensed Light'" stroke="none" stroke-miterlimit="1.45" xml:space="preserve">        models: Supplier&lt;Collection&lt;Spatial&gt;&gt;,</text>
      <text stroke-linecap="butt" x="665.6667" y="-85.5216" clip-path="url(#clipPath16)" font-family="'Open Sans Condensed Light'" stroke="none" stroke-miterlimit="1.45" xml:space="preserve">        durationInFrames: long)</text>
      <rect x="705" y="-27" clip-path="url(#clipPath2)" fill="rgb(255,204,0)" width="89" height="26" stroke="none"/>
      <rect x="704" y="-28" clip-path="url(#clipPath2)" fill="yellow" width="1" height="28" stroke="none"/>
      <rect x="705" y="-28" clip-path="url(#clipPath2)" fill="yellow" width="89" height="1" stroke="none"/>
      <rect x="705" y="-1" clip-path="url(#clipPath2)" fill="rgb(178,142,0)" width="90" height="1" stroke="none"/>
      <rect x="794" y="-28" clip-path="url(#clipPath2)" fill="rgb(178,142,0)" width="1" height="27" stroke="none"/>
    </g>
    <g font-size="13px" stroke-linecap="butt" transform="matrix(1,0,0,1,-5,490)" text-rendering="geometricPrecision" font-family="'Open Sans Condensed Light'" shape-rendering="geometricPrecision" font-weight="bold" stroke-miterlimit="1.45">
      <text x="716.5746" xml:space="preserve" y="-9.105" clip-path="url(#clipPath17)" stroke="none">TranslationOp</text>
    </g>
    <g fill="rgb(255,204,0)" text-rendering="geometricPrecision" shape-rendering="geometricPrecision" transform="matrix(1,0,0,1,-5,490)" stroke="rgb(255,204,0)">
      <rect x="871" width="117" height="96" y="-172" clip-path="url(#clipPath2)" stroke="none"/>
      <rect x="870" y="-173" clip-path="url(#clipPath2)" fill="yellow" width="1" height="98" stroke="none"/>
      <rect x="871" y="-173" clip-path="url(#clipPath2)" fill="yellow" width="117" height="1" stroke="none"/>
      <rect x="871" y="-76" clip-path="url(#clipPath2)" fill="rgb(178,142,0)" width="118" height="1" stroke="none"/>
      <rect x="988" y="-173" clip-path="url(#clipPath2)" fill="rgb(178,142,0)" width="1" height="97" stroke="none"/>
    </g>
    <g font-size="13px" stroke-linecap="butt" transform="matrix(1,0,0,1,-5,490)" text-rendering="geometricPrecision" font-family="'Open Sans Condensed Light'" shape-rendering="geometricPrecision" font-weight="bold" stroke-miterlimit="1.45">
      <text x="894.2592" xml:space="preserve" y="-154.84" clip-path="url(#clipPath18)" stroke="none">ShowTtfTextOp</text>
    </g>
    <g text-rendering="geometricPrecision" shape-rendering="geometricPrecision" transform="matrix(1,0,0,1,-5,490)">
      <line y2="-146" fill="none" x1="871" clip-path="url(#clipPath18)" x2="988" y1="-146"/>
      <line y2="-136" fill="none" x1="871" clip-path="url(#clipPath18)" x2="988" y1="-136"/>
      <text stroke-linecap="butt" x="875.5233" y="-118.2052" clip-path="url(#clipPath18)" font-family="'Open Sans Condensed Light'" stroke="none" stroke-miterlimit="1.45" xml:space="preserve">+ ShowTtfTextOp(</text>
      <text stroke-linecap="butt" x="875.5233" y="-101.8634" clip-path="url(#clipPath18)" font-family="'Open Sans Condensed Light'" stroke="none" stroke-miterlimit="1.45" xml:space="preserve">        durationInFrames: long,</text>
      <text stroke-linecap="butt" x="875.5233" y="-85.5216" clip-path="url(#clipPath18)" font-family="'Open Sans Condensed Light'" stroke="none" stroke-miterlimit="1.45" xml:space="preserve">        text: String)</text>
      <rect x="1020" y="-172" clip-path="url(#clipPath2)" fill="rgb(255,204,0)" width="139" height="96" stroke="none"/>
      <rect x="1019" y="-173" clip-path="url(#clipPath2)" fill="yellow" width="1" height="98" stroke="none"/>
      <rect x="1020" y="-173" clip-path="url(#clipPath2)" fill="yellow" width="139" height="1" stroke="none"/>
      <rect x="1020" y="-76" clip-path="url(#clipPath2)" fill="rgb(178,142,0)" width="140" height="1" stroke="none"/>
      <rect x="1159" y="-173" clip-path="url(#clipPath2)" fill="rgb(178,142,0)" width="1" height="97" stroke="none"/>
    </g>
    <g font-size="13px" stroke-linecap="butt" transform="matrix(1,0,0,1,-5,490)" text-rendering="geometricPrecision" font-family="'Open Sans Condensed Light'" shape-rendering="geometricPrecision" font-weight="bold" stroke-miterlimit="1.45">
      <text x="1033.4841" xml:space="preserve" y="-154.84" clip-path="url(#clipPath19)" stroke="none">InterpolatedOpBase&lt;T&gt;</text>
    </g>
    <g text-rendering="geometricPrecision" shape-rendering="geometricPrecision" transform="matrix(1,0,0,1,-5,490)">
      <line y2="-146" fill="none" x1="1020" clip-path="url(#clipPath19)" x2="1160" y1="-146"/>
      <line y2="-136" fill="none" x1="1020" clip-path="url(#clipPath19)" x2="1160" y1="-136"/>
      <text stroke-linecap="butt" x="1024.9268" y="-118.2052" clip-path="url(#clipPath19)" font-family="'Open Sans Condensed Light'" stroke="none" stroke-miterlimit="1.45" xml:space="preserve">+ InterpolatedOpBase(</text>
      <text stroke-linecap="butt" x="1024.9268" y="-101.8634" clip-path="url(#clipPath19)" font-family="'Open Sans Condensed Light'" stroke="none" stroke-miterlimit="1.45" xml:space="preserve">         durationInFrames: long,</text>
      <text stroke-linecap="butt" x="1024.9268" y="-85.5216" clip-path="url(#clipPath19)" font-family="'Open Sans Condensed Light'" stroke="none" stroke-miterlimit="1.45" xml:space="preserve">         Interpolator&lt;T&gt; interpolator)</text>
      <rect x="860" y="-27" clip-path="url(#clipPath2)" fill="rgb(255,204,0)" width="98" height="26" stroke="none"/>
      <rect x="859" y="-28" clip-path="url(#clipPath2)" fill="yellow" width="1" height="28" stroke="none"/>
      <rect x="860" y="-28" clip-path="url(#clipPath2)" fill="yellow" width="98" height="1" stroke="none"/>
      <rect x="860" y="-1" clip-path="url(#clipPath2)" fill="rgb(178,142,0)" width="99" height="1" stroke="none"/>
      <rect x="958" y="-28" clip-path="url(#clipPath2)" fill="rgb(178,142,0)" width="1" height="27" stroke="none"/>
    </g>
    <g font-size="13px" stroke-linecap="butt" transform="matrix(1,0,0,1,-5,490)" text-rendering="geometricPrecision" font-family="'Open Sans Condensed Light'" shape-rendering="geometricPrecision" font-weight="bold" stroke-miterlimit="1.45">
      <text x="868.2512" xml:space="preserve" y="-9.105" clip-path="url(#clipPath20)" stroke="none">CameraLookAtOp</text>
    </g>
    <g fill="rgb(255,204,0)" text-rendering="geometricPrecision" shape-rendering="geometricPrecision" transform="matrix(1,0,0,1,-5,490)" stroke="rgb(255,204,0)">
      <rect x="990" width="98" height="26" y="-27" clip-path="url(#clipPath2)" stroke="none"/>
      <rect x="989" y="-28" clip-path="url(#clipPath2)" fill="yellow" width="1" height="28" stroke="none"/>
      <rect x="990" y="-28" clip-path="url(#clipPath2)" fill="yellow" width="98" height="1" stroke="none"/>
      <rect x="990" y="-1" clip-path="url(#clipPath2)" fill="rgb(178,142,0)" width="99" height="1" stroke="none"/>
      <rect x="1088" y="-28" clip-path="url(#clipPath2)" fill="rgb(178,142,0)" width="1" height="27" stroke="none"/>
    </g>
    <g font-size="13px" stroke-linecap="butt" transform="matrix(1,0,0,1,-5,490)" text-rendering="geometricPrecision" font-family="'Open Sans Condensed Light'" shape-rendering="geometricPrecision" font-weight="bold" stroke-miterlimit="1.45">
      <text x="1001.575" xml:space="preserve" y="-9.105" clip-path="url(#clipPath21)" stroke="none">CameraZoomOp</text>
    </g>
    <g fill="rgb(255,204,0)" text-rendering="geometricPrecision" shape-rendering="geometricPrecision" transform="matrix(1,0,0,1,-5,490)" stroke="rgb(255,204,0)">
      <rect x="1120" width="98" height="26" y="-27" clip-path="url(#clipPath2)" stroke="none"/>
      <rect x="1119" y="-28" clip-path="url(#clipPath2)" fill="yellow" width="1" height="28" stroke="none"/>
      <rect x="1120" y="-28" clip-path="url(#clipPath2)" fill="yellow" width="98" height="1" stroke="none"/>
      <rect x="1120" y="-1" clip-path="url(#clipPath2)" fill="rgb(178,142,0)" width="99" height="1" stroke="none"/>
      <rect x="1218" y="-28" clip-path="url(#clipPath2)" fill="rgb(178,142,0)" width="1" height="27" stroke="none"/>
    </g>
    <g font-size="13px" stroke-linecap="butt" transform="matrix(1,0,0,1,-5,490)" text-rendering="geometricPrecision" font-family="'Open Sans Condensed Light'" shape-rendering="geometricPrecision" font-weight="bold" stroke-miterlimit="1.45">
      <text x="1142.6823" xml:space="preserve" y="-9.105" clip-path="url(#clipPath22)" stroke="none">RotationOp</text>
    </g>
    <g fill="rgb(255,204,0)" text-rendering="geometricPrecision" shape-rendering="geometricPrecision" transform="matrix(1,0,0,1,-5,490)" stroke="rgb(255,204,0)">
      <rect x="1250" width="98" height="26" y="-27" clip-path="url(#clipPath2)" stroke="none"/>
      <rect x="1249" y="-28" clip-path="url(#clipPath2)" fill="yellow" width="1" height="28" stroke="none"/>
      <rect x="1250" y="-28" clip-path="url(#clipPath2)" fill="yellow" width="98" height="1" stroke="none"/>
      <rect x="1250" y="-1" clip-path="url(#clipPath2)" fill="rgb(178,142,0)" width="99" height="1" stroke="none"/>
      <rect x="1348" y="-28" clip-path="url(#clipPath2)" fill="rgb(178,142,0)" width="1" height="27" stroke="none"/>
    </g>
    <g font-size="13px" stroke-linecap="butt" transform="matrix(1,0,0,1,-5,490)" text-rendering="geometricPrecision" font-family="'Open Sans Condensed Light'" shape-rendering="geometricPrecision" font-weight="bold" stroke-miterlimit="1.45">
      <text x="1274.723" xml:space="preserve" y="-9.105" clip-path="url(#clipPath23)" stroke="none">ScaleToOp</text>
      <path fill="none" d="M1268.731 -138.3937 L1268.731 -230.6496" clip-path="url(#clipPath2)"/>
    </g>
    <g stroke-linecap="butt" transform="matrix(1,0,0,1,-5,490)" fill="white" text-rendering="geometricPrecision" shape-rendering="geometricPrecision" stroke="white" stroke-miterlimit="1.45">
      <path d="M1268.731 -245.6496 L1262.731 -229.6496 L1274.731 -229.6496 Z" stroke="none" clip-path="url(#clipPath2)"/>
      <path fill="none" d="M1268.731 -245.6496 L1262.731 -229.6496 L1274.731 -229.6496 Z" clip-path="url(#clipPath2)" stroke="black"/>
      <path fill="none" d="M1426.321 -138.3978 L1426.321 -153.8675 L1396.0309 -153.8675 L1396.0309 -230.631" clip-path="url(#clipPath2)" stroke="black"/>
      <path d="M1396.0309 -245.631 L1390.0309 -229.631 L1402.0309 -229.631 Z" clip-path="url(#clipPath2)" stroke="none"/>
      <path fill="none" d="M1396.0309 -245.631 L1390.0309 -229.631 L1402.0309 -229.631 Z" clip-path="url(#clipPath2)" stroke="black"/>
      <path fill="none" d="M1332.381 -306.5815 L1332.381 -362.9948 L978.1088 -362.9948 L978.1088 -363.4645" clip-path="url(#clipPath2)" stroke="black"/>
      <path d="M978.1088 -378.4645 L972.1088 -362.4645 L984.1088 -362.4645 Z" clip-path="url(#clipPath2)" stroke="none"/>
      <path fill="none" d="M978.1088 -378.4645 L972.1088 -362.4645 L984.1088 -362.4645 Z" clip-path="url(#clipPath2)" stroke="black"/>
      <path fill="none" d="M284.4417 -308.223 L284.4417 -348.0949 L879.813 -348.0949 L879.813 -363.4651" clip-path="url(#clipPath2)" stroke="black"/>
      <path d="M879.813 -378.4651 L873.813 -362.4651 L885.813 -362.4651 Z" clip-path="url(#clipPath2)" stroke="none"/>
      <path fill="none" d="M879.813 -378.4651 L873.813 -362.4651 L885.813 -362.4651 Z" clip-path="url(#clipPath2)" stroke="black"/>
      <path fill="none" d="M1017.5119 -331.525 L1017.5119 -346.9948 L945.3436 -346.9948 L945.3436 -363.464" clip-path="url(#clipPath2)" stroke="black"/>
      <path d="M945.3436 -378.464 L939.3436 -362.464 L951.3436 -362.464 Z" clip-path="url(#clipPath2)" stroke="none"/>
      <path fill="none" d="M945.3436 -378.464 L939.3436 -362.464 L951.3436 -362.464 Z" clip-path="url(#clipPath2)" stroke="black"/>
      <path fill="none" d="M840.4099 -316.6252 L840.4099 -332.0949 L912.5783 -332.0949 L912.5783 -363.4495" clip-path="url(#clipPath2)" stroke="black"/>
      <path d="M912.5783 -378.4495 L906.5783 -362.4495 L918.5783 -362.4495 Z" clip-path="url(#clipPath2)" stroke="none"/>
      <path fill="none" d="M912.5783 -378.4495 L906.5783 -362.4495 L918.5783 -362.4495 Z" clip-path="url(#clipPath2)" stroke="black"/>
      <path fill="none" d="M568.2671 -164.8869 L568.2671 -205.235 L785.2468 -205.235 L785.2468 -220.6348" clip-path="url(#clipPath2)" stroke="black"/>
      <path d="M785.2468 -235.6348 L779.2468 -219.6348 L791.2468 -219.6348 Z" clip-path="url(#clipPath2)" stroke="none"/>
      <path fill="none" d="M785.2468 -235.6348 L779.2468 -219.6348 L791.2468 -219.6348 Z" clip-path="url(#clipPath2)" stroke="black"/>
      <path fill="none" d="M112.6262 -163.9833 L112.6262 -179.453 L256.2737 -179.453 L256.2737 -229.0142" clip-path="url(#clipPath2)" stroke="black"/>
      <path d="M256.2737 -244.0142 L250.2737 -228.0142 L262.2737 -228.0142 Z" clip-path="url(#clipPath2)" stroke="none"/>
      <path fill="none" d="M256.2737 -244.0142 L250.2737 -228.0142 L262.2737 -228.0142 Z" clip-path="url(#clipPath2)" stroke="black"/>
      <path fill="none" d="M63.0823 -28.0303 L63.0823 -43.5 L66.3132 -43.5 L66.3132 -69.7416" clip-path="url(#clipPath2)" stroke="black"/>
      <path d="M66.3132 -84.7416 L60.3132 -68.7416 L72.3132 -68.7416 Z" clip-path="url(#clipPath2)" stroke="none"/>
      <path fill="none" d="M66.3132 -84.7416 L60.3132 -68.7416 L72.3132 -68.7416 Z" clip-path="url(#clipPath2)" stroke="black"/>
      <path fill="none" d="M162.17 -28.0303 L162.17 -43.5 L158.9392 -43.5 L158.9392 -69.7416" clip-path="url(#clipPath2)" stroke="black"/>
      <path d="M158.9392 -84.7416 L152.9392 -68.7416 L164.9392 -68.7416 Z" clip-path="url(#clipPath2)" stroke="none"/>
      <path fill="none" d="M158.9392 -84.7416 L152.9392 -68.7416 L164.9392 -68.7416 Z" clip-path="url(#clipPath2)" stroke="black"/>
      <path fill="none" d="M284.4417 -138.3933 L284.4417 -229.0199" clip-path="url(#clipPath2)" stroke="black"/>
      <path d="M284.4417 -244.0199 L278.4417 -228.0199 L290.4417 -228.0199 Z" clip-path="url(#clipPath2)" stroke="none"/>
      <path fill="none" d="M284.4417 -244.0199 L278.4417 -228.0199 L290.4417 -228.0199 Z" clip-path="url(#clipPath2)" stroke="black"/>
      <path fill="none" d="M419.7492 -138.3978 L419.7492 -153.8675 L312.6096 -153.8675 L312.6096 -229.0017" clip-path="url(#clipPath2)" stroke="black"/>
      <path d="M312.6096 -244.0017 L306.6096 -228.0017 L318.6096 -228.0017 Z" clip-path="url(#clipPath2)" stroke="none"/>
      <path fill="none" d="M312.6096 -244.0017 L306.6096 -228.0017 L318.6096 -228.0017 Z" clip-path="url(#clipPath2)" stroke="black"/>
      <path fill="none" d="M750.5948 -173.7652 L750.5948 -189.235 L822.0222 -189.235 L822.0222 -220.6348" clip-path="url(#clipPath2)" stroke="black"/>
      <path d="M822.0222 -235.6348 L816.0222 -219.6348 L828.0222 -219.6348 Z" clip-path="url(#clipPath2)" stroke="none"/>
      <path fill="none" d="M822.0222 -235.6348 L816.0222 -219.6348 L828.0222 -219.6348 Z" clip-path="url(#clipPath2)" stroke="black"/>
      <path fill="none" d="M750.5948 -28.0459 L750.5948 -59.9541" clip-path="url(#clipPath2)" stroke="black"/>
      <path d="M750.5948 -74.9541 L744.5948 -58.9541 L756.5948 -58.9541 Z" clip-path="url(#clipPath2)" stroke="none"/>
      <path fill="none" d="M750.5948 -74.9541 L744.5948 -58.9541 L756.5948 -58.9541 Z" clip-path="url(#clipPath2)" stroke="black"/>
      <path fill="none" d="M930.225 -173.7652 L930.225 -189.235 L858.7977 -189.235 L858.7977 -220.6348" clip-path="url(#clipPath2)" stroke="black"/>
      <path d="M858.7977 -235.6348 L852.7977 -219.6348 L864.7977 -219.6348 Z" clip-path="url(#clipPath2)" stroke="none"/>
      <path fill="none" d="M858.7977 -235.6348 L852.7977 -219.6348 L864.7977 -219.6348 Z" clip-path="url(#clipPath2)" stroke="black"/>
      <path fill="none" d="M1090.5337 -173.7657 L1090.5337 -205.235 L895.5731 -205.235 L895.5731 -220.6348" clip-path="url(#clipPath2)" stroke="black"/>
      <path d="M895.5731 -235.6348 L889.5731 -219.6348 L901.5731 -219.6348 Z" clip-path="url(#clipPath2)" stroke="none"/>
      <path fill="none" d="M895.5731 -235.6348 L889.5731 -219.6348 L901.5731 -219.6348 Z" clip-path="url(#clipPath2)" stroke="black"/>
      <path fill="none" d="M909.5649 -28.0308 L909.5649 -59.5 L1037.5785 -59.5 L1037.5785 -59.9697" clip-path="url(#clipPath2)" stroke="black"/>
      <path d="M1037.5785 -74.9697 L1031.5785 -58.9697 L1043.5785 -58.9697 Z" clip-path="url(#clipPath2)" stroke="none"/>
      <path fill="none" d="M1037.5785 -74.9697 L1031.5785 -58.9697 L1043.5785 -58.9697 Z" clip-path="url(#clipPath2)" stroke="black"/>
      <path fill="none" d="M1039.8292 -28.0303 L1039.8292 -43.5 L1072.882 -43.5 L1072.882 -59.9692" clip-path="url(#clipPath2)" stroke="black"/>
      <path d="M1072.882 -74.9692 L1066.882 -58.9692 L1078.882 -58.9692 Z" clip-path="url(#clipPath2)" stroke="none"/>
      <path fill="none" d="M1072.882 -74.9692 L1066.882 -58.9692 L1078.882 -58.9692 Z" clip-path="url(#clipPath2)" stroke="black"/>
      <path fill="none" d="M1169.9613 -28.0303 L1169.9613 -43.5 L1108.1854 -43.5 L1108.1854 -59.9692" clip-path="url(#clipPath2)" stroke="black"/>
      <path d="M1108.1854 -74.9692 L1102.1854 -58.9692 L1114.1854 -58.9692 Z" clip-path="url(#clipPath2)" stroke="none"/>
      <path fill="none" d="M1108.1854 -74.9692 L1102.1854 -58.9692 L1114.1854 -58.9692 Z" clip-path="url(#clipPath2)" stroke="black"/>
      <path fill="none" d="M1299.9613 -28.0308 L1299.9613 -59.5 L1143.489 -59.5 L1143.489 -59.9697" clip-path="url(#clipPath2)" stroke="black"/>
      <path d="M1143.489 -74.9697 L1137.489 -58.9697 L1149.489 -58.9697 Z" clip-path="url(#clipPath2)" stroke="none"/>
      <path fill="none" d="M1143.489 -74.9697 L1137.489 -58.9697 L1149.489 -58.9697 Z" clip-path="url(#clipPath2)" stroke="black"/>
    </g>
  </g>
</svg>
